<svg xmlns="http://www.w3.org/2000/svg" viewBox="0 0 256 256" focusable="false" color="var(--token-8d7e0ee3-cbeb-4f0c-8fae-b1180c2c0a4a, rgb(173, 176, 183))" style="user-select: none; width: 100%; height: 100%; display: inline-block; fill: var(--token-8d7e0ee3-cbeb-4f0c-8fae-b1180c2c0a4a, rgb(173, 176, 183)); color: var(--token-8d7e0ee3-cbeb-4f0c-8fae-b1180c2c0a4a, rgb(173, 176, 183)); flex-shrink: 0;"><g color="var(--token-8d7e0ee3-cbeb-4f0c-8fae-b1180c2c0a4a, rgb(173, 176, 183))" weight="fill"><path d="M120,80A40,40,0,1,1,80,40,40,40,0,0,1,120,80Zm56,40a40,40,0,1,0-40-40A40,40,0,0,0,176,120ZM80,136a40,40,0,1,0,40,40A40,40,0,0,0,80,136Zm96,0a40,40,0,1,0,40,40A40,40,0,0,0,176,136Z"/></g></svg>