<svg xmlns="http://www.w3.org/2000/svg" viewBox="0 0 256 256" focusable="false" color="var(--token-8d7e0ee3-cbeb-4f0c-8fae-b1180c2c0a4a, rgb(173, 176, 183))" style="user-select: none; width: 100%; height: 100%; display: inline-block; fill: var(--token-8d7e0ee3-cbeb-4f0c-8fae-b1180c2c0a4a, rgb(173, 176, 183)); color: var(--token-8d7e0ee3-cbeb-4f0c-8fae-b1180c2c0a4a, rgb(173, 176, 183)); flex-shrink: 0;"><g color="var(--token-8d7e0ee3-cbeb-4f0c-8fae-b1180c2c0a4a, rgb(173, 176, 183))" weight="fill"><path d="M24,120v48a8,8,0,0,1-16,0V120a8,8,0,0,1,16,0ZM48,88a8,8,0,0,0-8,8v96a8,8,0,0,0,16,0V96A8,8,0,0,0,48,88Zm32-8a8,8,0,0,0-8,8V192a8,8,0,0,0,16,0V88A8,8,0,0,0,80,80Zm32-32a8,8,0,0,0-8,8V192a8,8,0,0,0,16,0V56A8,8,0,0,0,112,48Zm110.84,58.34A80,80,0,0,0,144,40h-4a4,4,0,0,0-4,4V196a4,4,0,0,0,4,4h67.21c25.58,0,47.27-19.72,48.71-45.26A48.06,48.06,0,0,0,222.84,106.34Z"/></g></svg>