<svg xmlns="http://www.w3.org/2000/svg" viewBox="0 0 256 256" focusable="false" color="var(--token-8d7e0ee3-cbeb-4f0c-8fae-b1180c2c0a4a, rgb(173, 176, 183))" style="user-select: none; width: 100%; height: 100%; display: inline-block; fill: var(--token-8d7e0ee3-cbeb-4f0c-8fae-b1180c2c0a4a, rgb(173, 176, 183)); color: var(--token-8d7e0ee3-cbeb-4f0c-8fae-b1180c2c0a4a, rgb(173, 176, 183)); flex-shrink: 0;"><g color="var(--token-8d7e0ee3-cbeb-4f0c-8fae-b1180c2c0a4a, rgb(173, 176, 183))" weight="fill"><path d="M128,24C74.17,24,32,48.6,32,80v96c0,31.4,42.17,56,96,56s96-24.6,96-56V80C224,48.6,181.83,24,128,24Zm80,104c0,9.62-7.88,19.43-21.61,26.92C170.93,163.35,150.19,168,128,168s-42.93-4.65-58.39-13.08C55.88,147.43,48,137.62,48,128V111.36c17.06,15,46.23,24.64,80,24.64s62.94-9.68,80-24.64Zm-21.61,74.92C170.93,211.35,150.19,216,128,216s-42.93-4.65-58.39-13.08C55.88,195.43,48,185.62,48,176V159.36c17.06,15,46.23,24.64,80,24.64s62.94-9.68,80-24.64V176C208,185.62,200.12,195.43,186.39,202.92Z"/></g></svg>