<svg xmlns="http://www.w3.org/2000/svg" viewBox="0 0 256 256" focusable="false" color="var(--token-c40dec17-ad9b-478b-a7f0-e25384b15814, rgb(255, 255, 255))" style="user-select: none; width: 100%; height: 100%; display: inline-block; fill: var(--token-c40dec17-ad9b-478b-a7f0-e25384b15814, rgb(255, 255, 255)); color: var(--token-c40dec17-ad9b-478b-a7f0-e25384b15814, rgb(255, 255, 255)); flex-shrink: 0;"><g color="var(--token-c40dec17-ad9b-478b-a7f0-e25384b15814, rgb(255, 255, 255))" weight="fill"><path d="M240,120a8,8,0,0,1-8,8H200v32h8a16,16,0,0,1,16,16v32a16,16,0,0,1-16,16H176a16,16,0,0,1-16-16V176a16,16,0,0,1,16-16h8V128H72v32h8a16,16,0,0,1,16,16v32a16,16,0,0,1-16,16H48a16,16,0,0,1-16-16V176a16,16,0,0,1,16-16h8V128H24a8,8,0,0,1,0-16h96V88h-8A16,16,0,0,1,96,72V40a16,16,0,0,1,16-16h32a16,16,0,0,1,16,16V72a16,16,0,0,1-16,16h-8v24h96A8,8,0,0,1,240,120Z"/></g></svg>