<svg xmlns="http://www.w3.org/2000/svg" viewBox="0 0 256 256" focusable="false" color="var(--token-b180feb0-2545-4848-a97b-fd8cf92292c7, rgb(146, 150, 159))" style="user-select: none; width: 100%; height: 100%; display: inline-block; fill: var(--token-b180feb0-2545-4848-a97b-fd8cf92292c7, rgb(146, 150, 159)); color: var(--token-b180feb0-2545-4848-a97b-fd8cf92292c7, rgb(146, 150, 159)); flex-shrink: 0;"><g color="var(--token-b180feb0-2545-4848-a97b-fd8cf92292c7, rgb(146, 150, 159))" weight="regular"><path d="M224,48H32a8,8,0,0,0-8,8V192a16,16,0,0,0,16,16H216a16,16,0,0,0,16-16V56A8,8,0,0,0,224,48Zm-96,85.15L52.57,64H203.43ZM98.71,128,40,181.81V74.19Zm11.84,10.85,12,11.05a8,8,0,0,0,10.82,0l12-11.05,58,53.15H52.57ZM157.29,128,216,74.18V181.82Z"/></g></svg>