<svg xmlns="http://www.w3.org/2000/svg" viewBox="0 0 256 256" focusable="false" color="var(--token-c40dec17-ad9b-478b-a7f0-e25384b15814, rgb(255, 255, 255))" style="user-select: none; width: 100%; height: 100%; display: inline-block; fill: var(--token-c40dec17-ad9b-478b-a7f0-e25384b15814, rgb(255, 255, 255)); color: var(--token-c40dec17-ad9b-478b-a7f0-e25384b15814, rgb(255, 255, 255)); flex-shrink: 0;"><g color="var(--token-c40dec17-ad9b-478b-a7f0-e25384b15814, rgb(255, 255, 255))" weight="fill"><path d="M243.31,136,144,36.69A15.86,15.86,0,0,0,132.69,32H40a8,8,0,0,0-8,8v92.69A15.86,15.86,0,0,0,36.69,144L136,243.31a16,16,0,0,0,22.63,0l84.68-84.68a16,16,0,0,0,0-22.63ZM84,96A12,12,0,1,1,96,84,12,12,0,0,1,84,96Z"/></g></svg>